<svg xmlns="http://www.w3.org/2000/svg" viewBox="0 0 512 512">
  <defs>
    <linearGradient id="bg" x1="50" y1="30" x2="462" y2="482" gradientUnits="userSpaceOnUse">
      <stop stop-color="#172A23"/>
      <stop offset="1" stop-color="#08120E"/>
    </linearGradient>
    <linearGradient id="shield" x1="128" y1="62" x2="384" y2="350" gradientUnits="userSpaceOnUse">
      <stop stop-color="#2BE08A"/>
      <stop offset="1" stop-color="#0EA968"/>
    </linearGradient>
  </defs>
  <rect width="512" height="512" rx="72" fill="url(#bg)"/>
  <path fill="url(#shield)" d="M256 48 390 98v99c0 91-53 156-134 189-81-33-134-98-134-189V98l134-50Z"/>
  <path fill="#10231C" d="M256 80 358 118v79c0 69-37 119-102 148-65-29-102-79-102-148v-79l102-38Z"/>
  <path fill="#F4FFF9" d="M198 167h40v86h-40v-86Zm76 0h40v86h-40v-86Zm-25 17h14v52h-14v-52Z"/>
  <circle cx="218" cy="210" r="8" fill="#FFB020"/>
  <circle cx="294" cy="210" r="8" fill="#FFB020"/>
  <path fill="none" stroke="#2BE08A" stroke-linecap="round" stroke-width="12" d="M218 141c22-21 54-21 76 0M235 122c13-10 29-10 42 0"/>
  <text x="256" y="432" fill="#F4FFF9" font-family="Arial, sans-serif" font-size="42" font-weight="700" text-anchor="middle">TrueGuard MZ</text>
  <text x="256" y="470" fill="#9BB5AA" font-family="Arial, sans-serif" font-size="21" text-anchor="middle">HOME ASSISTANT</text>
</svg>
